# xmcd CD database file
#
# Track frame offsets:
#	150
#	12475
#	26230
#	41407
#	61385
#	75335
#	92991
#	112005
#	125592
#
# Disc length: 1886 seconds
#
# Revision: 1
# Processed by: cddbd v1.5.2PL0 Copyright (c) Steve Scherf et al.
# Submitted via: CDex 1.51
#
DISCID=73075c09
DTITLE=Austin Lucas - The Common Cold
DYEAR=2006
DGENRE=Acoustic
TTITLE0=Dead Factories
TTITLE1=Darlin
TTITLE2=Pigeon Father
TTITLE3=Anything For The Baby
TTITLE4=Common Cold
TTITLE5=Corn Husker
TTITLE6=Cruel Brothers
TTITLE7=Kith And Kin
TTITLE8=Last Song For A Sweetheart
EXTD=YEAR: 2006
EXTT0=
EXTT1=
EXTT2=
EXTT3=
EXTT4=
EXTT5=
EXTT6=
EXTT7=
EXTT8=
PLAYORDER=
